# xmcd CD database file
#
# Track frame offsets:
#	150
#	12327
#	24747
#	38455
#	52715
#	65190
#	78535
#	93852
#	105485
#	117560
#	130572
#	142512
#	153015
#	171532
#	187475
#	207507
#	223467
#	237252
#	254185
#	270545
#	283472
#	294107
#	309070
#	322317
#
# Disc length: 4541 seconds
#
# Revision: 2
# Processed by: cddbd v1.5.2PL0 Copyright (c) Steve Scherf et al.
# Submitted via: CDex 1.51
#
DISCID=6811bb18
DTITLE=Little Milton - We're Gonna Make It - Little Milton Sings Big Blues
DYEAR=1966
DGENRE=Blues
TTITLE0=We're Gonna Make It
TTITLE1=You're Welcome To The Club
TTITLE2=I'm Gonna Move To Outskirts Of Town
TTITLE3=Blues In The Night
TTITLE4=Country Style
TTITLE5=Who's Cheating Who ?
TTITLE6=Blind Man
TTITLE7=Can't Hold Back The Tears
TTITLE8=Believe In Me
TTITLE9=Stand By Me
TTITLE10=Life Is Like That
TTITLE11=Ain't No Big Deal On You
TTITLE12=Feel So Bad
TTITLE13=Reconsider Baby
TTITLE14=Stormy Monday
TTITLE15=Woke Up This Morning
TTITLE16=Hard Luck Blues
TTITLE17=Please Please Please
TTITLE18=Sweet Sixteen
TTITLE19=Fever
TTITLE20=Sneakin' Around
TTITLE21=Don7t Deceive Me
TTITLE22=Have Mercy Baby
TTITLE23=Part Time Love
EXTD=YEAR: 1966
EXTT0=
EXTT1=
EXTT2=
EXTT3=
EXTT4=
EXTT5=
EXTT6=
EXTT7=
EXTT8=
EXTT9=
EXTT10=
EXTT11=
EXTT12=
EXTT13=
EXTT14=
EXTT15=
EXTT16=
EXTT17=
EXTT18=
EXTT19=
EXTT20=
EXTT21=
EXTT22=
EXTT23=
PLAYORDER=
